# xmcd
#
# Track frame offsets:
# 150
# 14448
# 24593
# 39645
# 52080
# 62905
# 73378
# 82693
# 93110
# 111050
# 118795
# 130655
# 138985
# 153890
# 167370
# 187115
# 201538
# 211098
# 224470
# 237305
# 247315
# 257620
# 272553
# 287643
# 296885
#
# Disc length: 4095 seconds
#
#
# Revision: 2
# Processed by: cddbd v1.5.2PL0 Copyright (c) Steve Scherf et al.
# Submitted via: FreeRIP 2.945 
#
DISCID=7d0ffd19
DTITLE=Various Artist - The Best Of The West~Volume 1
DYEAR=1993
DGENRE=Country
TTITLE0=Frankie Laine - Riders In The Sky
TTITLE1=Dave Dudley - Oh Lonesome Me
TTITLE2=Jeanie C. Riley - Harper Valley P.T.A.
TTITLE3=Jerry Lee Lewis - Crazy Arms
TTITLE4=Jim Reeves - He'll Have To Go
TTITLE5=Kenny Rogers - Ticket To Nowhere
TTITLE6=George Jones - The World's Worst Loser
TTITLE7=Willie Nelson - Broken Promises
TTITLE8=David Houston - Nashville
TTITLE9=Roger Miller - Do Vaka Do
TTITLE10=Frankie Laine - Blowing Wild
TTITLE11=Willie Nelson - Things To Remember
TTITLE12=Kingston Trio - Tom Dooley
TTITLE13=Patti Page - Tennessee Waltz
TTITLE14=Marty Robbins - El Paso
TTITLE15=Marty Robbins - Cool Water
TTITLE16=Frankie Laine - Rawhide
TTITLE17=Lynn Anderson - Rose Garden
TTITLE18=George Jones - I Love You Because
TTITLE19=Dolly Parton - Please, Release Me
TTITLE20=Jim Reeves - Getting Better
TTITLE21=Frankie Laine - Jezebel
TTITLE22=Kenny Rogers - For The Good Times
TTITLE23=Don Williams - Apartment No.9
TTITLE24=Johnny Russell - Jambalaya
EXTD=
EXTT0=Frankie Lane
EXTT1=Dave DUdley
EXTT2=Jeanie C. Riley
EXTT3=Jerry Lee Lewis
EXTT4=Jim Reeves
EXTT5=Kenny Rogers
EXTT6=George Jones
EXTT7=Willie Nelson
EXTT8=David Houston
EXTT9=Roger Miller
EXTT10=Frankie Lane
EXTT11=Willie Nelson
EXTT12=Kingston Trio
EXTT13=Patti Page
EXTT14=Marty Robbins
EXTT15=Marty Robbins
EXTT16=Frankie Lane
EXTT17=Linn Anderson
EXTT18=George Jones
EXTT19=Dolly Parton
EXTT20=Jim Reeves
EXTT21=Frankie Lane
EXTT22=Kenny Rogers
EXTT23=Don Williams
EXTT24=Johnny Russel
PLAYORDER=
